<svg class="icon-svg icon-selection" aria-hidden="true" focusable="false" role="presentation" xmlns="http://www.w3.org/2000/svg" viewBox="0 0 25 25" fill="none" style="--color: #000000"><g><path d="M9.42,17.58,7.5,19.5v-4h-6a1,1,0,0,1-1-1V1.5a1,1,0,0,1,1-1h18a1,1,0,0,1,1,1v7" fill="none" stroke="#000000" stroke-linecap="round" stroke-linejoin="round"></path><path d="M11.5,18.5a1,1,0,0,0,1,1h4l4,4v-4h2a1,1,0,0,0,1-1v-7a1,1,0,0,0-1-1h-10a1,1,0,0,0-1,1Z" fill="none" stroke="#000000" stroke-linecap="round" stroke-linejoin="round"></path><line x1="4.5" y1="4" x2="16.5" y2="4" fill="none" stroke="#000000" stroke-linecap="round" stroke-linejoin="round"></line><line x1="4.5" y1="7" x2="16.5" y2="7" fill="none" stroke="#000000" stroke-linecap="round" stroke-linejoin="round"></line><line x1="14.5" y1="13.5" x2="20.5" y2="13.5" fill="none" stroke="#000000" stroke-linecap="round" stroke-linejoin="round"></line><line x1="14.5" y1="16.5" x2="20.5" y2="16.5" fill="none" stroke="#000000" stroke-linecap="round" stroke-linejoin="round"></line><line x1="4.5" y1="10" x2="9" y2="10" fill="none" stroke="#000000" stroke-linecap="round" stroke-linejoin="round"></line></g></svg>