<svg class="icon-svg icon-selection" aria-hidden="true" focusable="false" role="presentation" xmlns="http://www.w3.org/2000/svg" viewBox="0 0 25 25" fill="none" style="--color: #000000"><g><path d="M.5,23.43c2.45.52,4.5-2,4.5-2a4.28,4.28,0,0,0,3.49,2,4.11,4.11,0,0,0,3.51-2,4.08,4.08,0,0,0,3.49,2,4.32,4.32,0,0,0,3.51-2s2.05,2.52,4.5,2" fill="none" stroke="#000000" stroke-linecap="round" stroke-linejoin="round"></path><line x1="12.49" y1="18.5" x2="12.49" y2="9.39" fill="none" stroke="#000000" stroke-linecap="round" stroke-linejoin="round"></line><polyline points="22.99 11.39 12.49 9.39 1.99 11.39" fill="none" stroke="#000000" stroke-linecap="round" stroke-linejoin="round"></polyline><line x1="21.98" y1="11.2" x2="19.76" y2="20.07" fill="none" stroke="#000000" stroke-linecap="round" stroke-linejoin="round"></line><line x1="3" y1="11.2" x2="5.01" y2="19.33" fill="none" stroke="#000000" stroke-linecap="round" stroke-linejoin="round"></line><path d="M18.49,10.54v-3a2,2,0,0,0-2-2h-8a2,2,0,0,0-2,2v3" fill="none" stroke="#000000" stroke-linecap="round" stroke-linejoin="round"></path><line x1="14.99" y1="7.5" x2="9.99" y2="7.5" fill="none" stroke="#000000" stroke-linecap="round" stroke-linejoin="round"></line><path d="M14.49,5.5V1A.5.5,0,0,0,14,.5H11a.5.5,0,0,0-.5.5V5.5" fill="none" stroke="#000000" stroke-linecap="round" stroke-linejoin="round"></path><line x1="14.49" y1="3.5" x2="10.49" y2="3.5" fill="none" stroke="#000000" stroke-linecap="round" stroke-linejoin="round"></line><polyline points="21.18 14.47 12.49 12.39 3.81 14.45" fill="none" stroke="#000000" stroke-linecap="round" stroke-linejoin="round"></polyline></g></svg>